# xmcd
# 
# Track frame offsets:
#     150
#     35580
#     66412
#     91096
#     122362
#     155239
#     189590
#     219086
#     244894
#     269261
# 
# Disc length: 3966
# 
# Revision: 4
# Processed by: cddbd v1.5.2PL0 Copyright (c) Steve Scherf et al.
# Submitted via: fre:ac v1.0.31
# 
DISCID=890f7c0a
DTITLE=Warren Haynes - Man In Motion
DYEAR=2011
DGENRE=Rock/Pop
TTITLE0=Man In Motion
TTITLE1=River's Gonna Rise
TTITLE2=Everyday Will Be Like A Holiday
TTITLE3=Sick Of My Shadow
TTITLE4=Your Wildest Dreams
TTITLE5=On A Real Lonely Night
TTITLE6=Hattiesburg Hustle
TTITLE7=A Friend To You
TTITLE8=Take A Bullet
TTITLE9=Save Me
EXTD=
EXTT0=
EXTT1=
EXTT2=
EXTT3=
EXTT4=
EXTT5=
EXTT6=
EXTT7=
EXTT8=
EXTT9=
PLAYORDER=
